<?xml version="1.0" encoding="utf-8"?>
<!-- Generator: Adobe Illustrator 16.0.4, SVG Export Plug-In . SVG Version: 6.00 Build 0)  -->
<!DOCTYPE svg PUBLIC "-//W3C//DTD SVG 1.1//EN" "http://www.w3.org/Graphics/SVG/1.1/DTD/svg11.dtd">
<svg version="1.1" id="Layer_1" xmlns="http://www.w3.org/2000/svg" xmlns:xlink="http://www.w3.org/1999/xlink" x="0px" y="0px"
	 width="250px" height="250px" viewBox="-25 -25 250 250" enable-background="new -25 -25 250 250" xml:space="preserve">
<path fill="none" stroke="#A7ADBA" stroke-width="3" stroke-linecap="round" stroke-linejoin="round" stroke-miterlimit="10" d="
	M160.113,93.268l-43.16,0.45l30.716-30.087l0.159-0.15c2.744-2.751,2.743-7.227-0.003-9.978c-1.285-1.284-3.103-2.02-4.986-2.02
	c-1.894,0-3.722,0.743-5.032,2.055L107.609,84.37l0.446-43.204c0-3.892-3.166-7.058-7.056-7.058c-3.893,0-7.06,3.178-7.06,7.107
	l0.45,43.154L64.155,53.502c-1.283-1.284-3.103-2.02-4.992-2.02s-3.708,0.736-4.988,2.018c-1.336,1.335-2.07,3.109-2.067,4.996
	c0.002,1.885,0.743,3.663,2.101,5.021l30.838,30.2l-43.209-0.449c-3.892,0-7.059,3.168-7.059,7.062c0,3.891,3.178,7.056,7.107,7.056
	l43.156-0.447l-30.864,30.229c-1.334,1.331-2.07,3.103-2.071,4.987c-0.002,1.892,0.734,3.667,2.07,5.001
	c1.332,1.327,3.101,2.06,4.982,2.06c1.89,0,3.67-0.74,5.029-2.102l30.2-30.833l-0.449,43.21c0,3.892,3.167,7.059,7.06,7.059
	c3.89,0,7.056-3.178,7.056-7.106l-0.446-43.162l30.079,30.711l0.158,0.165c1.333,1.326,3.104,2.058,4.985,2.058
	c1.884,0,3.657-0.732,5.001-2.069c2.738-2.756,2.726-7.238-0.046-10.01l-30.829-30.197l43.203,0.447
	c3.891,0,7.056-3.165,7.056-7.056C167.217,96.436,164.04,93.268,160.113,93.268z"/>
<path fill="none" stroke="#A7ADBA" stroke-width="3" stroke-linecap="round" stroke-linejoin="round" stroke-miterlimit="10" d="
	M101.001-10.341c-61.023,0-110.668,49.647-110.668,110.67c0,61.021,49.646,110.666,110.668,110.666
	c61.022,0,110.667-49.645,110.667-110.666C211.668,39.306,162.023-10.341,101.001-10.341z M101.001,191.348
	c-50.189,0-91.021-40.831-91.021-91.018c0-50.188,40.832-91.02,91.021-91.02c50.188,0,91.021,40.832,91.021,91.02
	C192.021,150.517,151.189,191.348,101.001,191.348z"/>
</svg>
