<?xml version="1.0" encoding="utf-8"?>
<!-- Generator: Adobe Illustrator 16.0.4, SVG Export Plug-In . SVG Version: 6.00 Build 0)  -->
<!DOCTYPE svg PUBLIC "-//W3C//DTD SVG 1.1//EN" "http://www.w3.org/Graphics/SVG/1.1/DTD/svg11.dtd">
<svg version="1.1" id="Layer_1" xmlns="http://www.w3.org/2000/svg" xmlns:xlink="http://www.w3.org/1999/xlink" x="0px" y="0px"
	 width="16px" height="16px" viewBox="0 0 16 16" enable-background="new 0 0 16 16" xml:space="preserve">
<g>
	<path fill="#2D69F2" d="M8,1.715c-3.35,0-6.075,2.725-6.075,6.074c0,3.35,2.726,6.074,6.075,6.074c3.35,0,6.075-2.726,6.075-6.074
		C14.075,4.44,11.35,1.715,8,1.715z M8,12.833c-2.779,0-5.041-2.263-5.041-5.044c0-2.779,2.262-5.04,5.041-5.04
		c2.781,0,5.043,2.261,5.043,5.041S10.781,12.833,8,12.833z"/>
	<path fill="#2D69F2" d="M11.346,7.219h-1.97l1.39-1.39c0.11-0.108,0.172-0.251,0.172-0.399c0.004-0.155-0.059-0.305-0.168-0.408
		c-0.207-0.208-0.601-0.208-0.806,0L8.568,6.416V4.443c0-0.314-0.254-0.57-0.568-0.57s-0.57,0.256-0.57,0.57v1.971L6.035,5.018
		C5.82,4.812,5.44,4.813,5.232,5.022c-0.107,0.107-0.166,0.25-0.166,0.402c0,0.152,0.059,0.295,0.166,0.402l1.391,1.39h-1.97
		c-0.314,0-0.57,0.257-0.57,0.572c0,0.314,0.256,0.57,0.57,0.57h1.971L5.228,9.755c-0.221,0.228-0.216,0.583,0.018,0.815
		c0.216,0.197,0.572,0.197,0.793-0.012l1.39-1.396v1.969c0,0.312,0.257,0.566,0.572,0.566c0.154,0,0.298-0.062,0.409-0.173
		c0.105-0.105,0.163-0.248,0.163-0.398v-1.96l1.407,1.406c0.22,0.198,0.562,0.198,0.793-0.019c0.22-0.223,0.218-0.582-0.002-0.804
		L9.375,8.36h1.971c0.312,0,0.567-0.257,0.567-0.572C11.913,7.475,11.658,7.219,11.346,7.219z"/>
</g>
</svg>
