<?xml version="1.0" encoding="utf-8"?>
<!-- Generator: Adobe Illustrator 16.2.1, SVG Export Plug-In . SVG Version: 6.00 Build 0)  -->
<!DOCTYPE svg PUBLIC "-//W3C//DTD SVG 1.1//EN" "http://www.w3.org/Graphics/SVG/1.1/DTD/svg11.dtd">
<svg version="1.1" id="Layer_1" xmlns="http://www.w3.org/2000/svg" xmlns:xlink="http://www.w3.org/1999/xlink" x="0px" y="0px"
	 width="16px" height="16px" viewBox="0 0 16 16" enable-background="new 0 0 16 16" xml:space="preserve">
<g>
	<path fill="#FFFFFF" d="M8,0.78C4.018,0.78,0.779,4.019,0.779,8c0,3.981,3.24,7.221,7.221,7.221c3.981,0,7.222-3.239,7.222-7.221
		C15.222,4.019,11.981,0.78,8,0.78z M8,13.996c-3.303,0-5.992-2.689-5.992-5.996c0-3.304,2.689-5.991,5.992-5.991
		c3.307,0,5.995,2.687,5.995,5.992C13.995,11.307,11.307,13.996,8,13.996z"/>
	<path fill="#FFFFFF" d="M11.977,7.322H9.635l1.653-1.652c0.13-0.128,0.204-0.298,0.204-0.474c0.004-0.185-0.07-0.363-0.2-0.485
		c-0.246-0.247-0.714-0.247-0.958,0L8.676,6.368V4.022c0-0.374-0.303-0.677-0.676-0.677S7.323,3.649,7.323,4.022v2.343l-1.658-1.66
		C5.408,4.461,4.957,4.462,4.709,4.71C4.583,4.838,4.512,5.008,4.512,5.188c0,0.181,0.07,0.351,0.197,0.478l1.654,1.652H4.021
		c-0.373,0-0.677,0.306-0.677,0.681c0,0.373,0.304,0.677,0.677,0.677h2.343l-1.659,1.66c-0.263,0.271-0.257,0.693,0.021,0.971
		c0.257,0.233,0.68,0.233,0.942-0.015l1.652-1.659v2.341c0,0.37,0.306,0.673,0.68,0.673c0.183,0,0.354-0.072,0.486-0.205
		c0.125-0.126,0.194-0.295,0.194-0.474V9.639l1.672,1.671c0.262,0.235,0.669,0.235,0.943-0.021c0.262-0.266,0.258-0.692-0.003-0.956
		l-1.66-1.654h2.343c0.372,0,0.675-0.305,0.675-0.679C12.651,7.627,12.349,7.322,11.977,7.322z"/>
</g>
</svg>
