<?xml version="1.0" encoding="utf-8"?>
<!-- Generator: Adobe Illustrator 16.0.4, SVG Export Plug-In . SVG Version: 6.00 Build 0)  -->
<!DOCTYPE svg PUBLIC "-//W3C//DTD SVG 1.1//EN" "http://www.w3.org/Graphics/SVG/1.1/DTD/svg11.dtd">
<svg version="1.1" id="Layer_1" xmlns="http://www.w3.org/2000/svg" xmlns:xlink="http://www.w3.org/1999/xlink" x="0px" y="0px"
	 width="36px" height="36px" viewBox="0 0 36 36" enable-background="new 0 0 36 36" xml:space="preserve">
<path fill="#D8DEE9" d="M30.688,28.014L20.672,18L30.688,7.986c0.192-0.193,0.237-0.462,0.102-0.599l-2.175-2.175
	c-0.138-0.137-0.406-0.092-0.601,0.102L18,15.327L7.986,5.313C7.793,5.121,7.524,5.075,7.387,5.212L5.212,7.387
	C5.074,7.524,5.12,7.793,5.313,7.986L15.327,18L5.313,28.014c-0.193,0.194-0.239,0.463-0.102,0.601l2.175,2.176
	c0.137,0.137,0.406,0.092,0.599-0.103L18,20.673l10.014,10.015c0.193,0.193,0.463,0.238,0.601,0.103l2.175-2.176
	C30.926,28.477,30.88,28.208,30.688,28.014z"/>
</svg>
