<?xml version="1.0" encoding="utf-8"?>
<!-- Generator: Adobe Illustrator 16.2.1, SVG Export Plug-In . SVG Version: 6.00 Build 0)  -->
<!DOCTYPE svg PUBLIC "-//W3C//DTD SVG 1.1//EN" "http://www.w3.org/Graphics/SVG/1.1/DTD/svg11.dtd">
<svg version="1.1" id="Layer_1" xmlns="http://www.w3.org/2000/svg" xmlns:xlink="http://www.w3.org/1999/xlink" x="0px" y="0px"
	 width="400px" height="94.667px" viewBox="0 0 400 94.667" enable-background="new 0 0 400 94.667" xml:space="preserve">
<g>
	<g>
		<path fill-rule="evenodd" clip-rule="evenodd" d="M258.12,42.365c0-13.267,0-26.529,0-39.797c0-0.388-0.003-0.771,0.016-1.153
			c0.024-0.458,0.341-0.719,0.732-0.768c0.425-0.054,0.753,0.267,0.858,0.639c0.109,0.404,0.083,0.854,0.083,1.285
			c0.005,10.14,0.022,20.285-0.019,30.427c-0.005,1.301,0.19,1.398,1.363,0.806c7.653-3.879,15.686-5.18,24.152-3.351
			c6.285,1.355,9.842,5.14,10.886,11.619c0.455,2.807,0.617,5.628,0.614,8.467c-0.007,10.574-0.001,21.153-0.004,31.727
			c0,0.337,0.012,0.674-0.01,1.011c-0.028,0.495-0.293,0.816-0.799,0.84c-0.522,0.024-0.792-0.334-0.863-0.789
			c-0.065-0.423-0.03-0.862-0.03-1.296c-0.007-11.489-0.007-22.977-0.032-34.463c-0.006-2.408-0.332-4.779-0.938-7.117
			c-1.316-5.067-4.761-7.664-9.735-8.54c-7.98-1.411-15.553-0.199-22.776,3.448c-1.273,0.644-1.86,1.35-1.853,2.923
			c0.078,14.564,0.048,29.13,0.048,43.693c0,0.095,0.005,0.194-0.002,0.288c-0.046,0.73,0.236,1.786-0.854,1.813
			c-1.196,0.032-0.824-1.08-0.824-1.762C258.115,68.998,258.12,55.685,258.12,42.365z"/>
		<path fill-rule="evenodd" clip-rule="evenodd" d="M220.041,50.353c0,4.954-0.02,9.906,0.009,14.854
			c0.015,2.985,0.265,5.945,1.22,8.804c1.883,5.63,6.073,8.726,12.011,9.055c3.5,0.193,6.904,0.062,10.084-1.625
			c0.529-0.283,1.077-0.283,1.362,0.31c0.319,0.655-0.236,0.968-0.696,1.204c-1.493,0.784-3.084,1.307-4.745,1.595
			c-3.863,0.671-7.689,0.391-11.36-0.902c-5.556-1.953-7.97-6.422-8.989-11.869c-0.479-2.562-0.574-5.15-0.574-7.75
			c0.004-10.095-0.03-20.189,0.038-30.283c0.01-1.438-0.426-1.759-1.775-1.703c-2.543,0.113-5.094,0.041-7.642,0.035
			c-0.669-0.003-1.515,0.062-1.496-0.895c0.019-0.886,0.837-0.751,1.441-0.754c2.692-0.008,5.388-0.051,8.076,0.019
			c1.068,0.029,1.398-0.264,1.385-1.363c-0.06-4.903-0.025-9.806-0.025-14.708c0-0.337-0.011-0.674,0.012-1.008
			c0.04-0.544,0.326-0.97,0.884-0.924c0.518,0.043,0.83,0.431,0.782,1.016c-0.022,0.286-0.002,0.576-0.002,0.865
			c0,4.905,0.041,9.809-0.03,14.711c-0.018,1.185,0.361,1.425,1.466,1.414c5.48-0.054,10.96-0.027,16.439-0.024
			c0.431,0,0.864,0.016,1.294,0.054c0.407,0.032,0.588,0.358,0.623,0.689c0.033,0.351-0.165,0.687-0.524,0.763
			c-0.463,0.1-0.948,0.137-1.425,0.137c-5.528,0.008-11.056,0.03-16.584-0.016c-1.005-0.008-1.292,0.272-1.282,1.288
			C220.064,39.009,220.039,44.68,220.041,50.353z"/>
		<path fill-rule="evenodd" clip-rule="evenodd" d="M373.877,45.038c1.25-4.057,3.065-7.68,6.205-10.455
			c5.084-4.491,10.995-5.816,17.557-4.28c0.714,0.167,1.953,0.277,1.684,1.35c-0.284,1.131-1.312,0.506-2.053,0.312
			c-9.747-2.53-18.64,2.885-21.77,13.173c-1.513,4.973-1.909,10.07-1.931,15.215c-0.03,7.255-0.009,14.512-0.009,21.765
			c0,0.339,0.005,0.673-0.007,1.01c-0.021,0.53-0.139,0.973-0.733,0.986c-0.573,0.011-0.762-0.394-0.814-0.93
			c-0.031-0.285-0.012-0.576-0.012-0.865c0-16.67,0-33.343,0-50.012c0-0.243-0.002-0.482,0.002-0.725
			c0.01-0.579,0.165-1.075,0.855-1.094c0.721-0.016,0.702,0.493,0.706,1.072c0.008,0.765,0.005,1.536,0.003,2.303
			c-0.006,3.365-0.015,6.727-0.01,10.092C373.551,44.265,373.417,44.615,373.877,45.038z"/>
		<path fill-rule="evenodd" clip-rule="evenodd" d="M144.787,82.414c-1.79-0.308-2.872-1.455-3.458-3.096
			c-0.493-1.371-0.523-2.82-0.523-4.267c-0.001-9.804,0.028-19.609-0.012-29.416c-0.031-8.284-5.374-14.463-13.565-15.662
			c-6.713-0.983-13.057,0.471-19.174,3.181c-0.392,0.172-0.769,0.396-1.121,0.644c-0.368,0.264-0.664,0.62-0.381,1.096
			c0.257,0.431,0.634,0.536,1.103,0.259c0.326-0.197,0.692-0.323,1.033-0.496c5.14-2.597,10.629-3.542,16.322-3.249
			c6.802,0.351,11.813,4.222,13.611,10.286c0.501,1.684,0.522,3.408,0.502,5.137c-0.028,2.543-0.06,5.086-0.088,7.626
			c-2.555,0.528-5.137,0.162-7.707,0.219c-4.702,0.103-9.426-0.24-14.086,0.651c-4.123,0.787-7.996,2.129-10.794,5.499
			c-4.579,5.514-4.429,16.955,4.676,21.61c5.841,2.987,11.911,2.938,18.087,1.471c3.76-0.892,7.007-2.783,9.972-5.625
			c0.186,0.682,0.286,1.15,0.442,1.601c0.81,2.333,2.469,3.706,4.86,4.208c0.587,0.123,1.252,0.115,1.38-0.636
			C145.994,82.712,145.414,82.521,144.787,82.414z M138.23,77.037c-3.521,3.701-7.97,5.398-12.912,5.921
			c-4.635,0.49-9.187,0.251-13.454-1.988c-8.861-4.649-7.849-16.16-3.036-20.233c2.943-2.492,6.44-3.548,10.148-3.979
			c6.366-0.74,12.767-0.21,19.148-0.38c0.858-0.021,1.026,0.289,1.016,1.07c-0.041,2.979-0.016,5.959-0.016,8.938
			c-0.001,2.788-0.037,5.573,0.02,8.358C139.162,75.687,138.871,76.363,138.23,77.037z"/>
		<path fill-rule="evenodd" clip-rule="evenodd" d="M200.388,78.949c-0.313-0.783-0.913-0.463-1.446-0.215
			c-4.504,2.09-9.193,3.599-14.128,4.199c-4.649,0.568-9.235,0.289-13.416-2.088c-7.865-4.463-10.901-11.724-11.612-20.317
			c-0.1-1.198,0.344-1.428,1.438-1.436c5.188-0.051,10.381-0.081,15.555-0.601c5.021-0.504,10.008-1.164,14.707-3.139
			c3.508-1.474,6.503-3.531,7.821-7.333c1.735-5.005,0.175-10.261-4.323-13.909c-5.61-4.55-12.105-5.261-18.929-3.812
			c-6.144,1.304-10.8,4.787-13.962,10.221c-3.032,5.205-4.083,10.9-4.06,17.613c-0.133,2.963,0.389,6.624,1.517,10.161
			c2.03,6.366,5.64,11.495,11.841,14.488c3,1.449,6.188,2.117,9.473,2.079c6.576-0.069,12.784-1.748,18.669-4.657
			C200.057,79.946,200.682,79.685,200.388,78.949z M166.007,37.877c4.802-5.353,11.055-6.991,18.002-6.401
			c4.125,0.353,7.842,1.781,10.813,4.776c5.816,5.865,4.188,14.051-3.397,17.341c-4.324,1.872-8.899,2.64-13.526,3.13
			c-3.963,0.421-7.942,0.688-11.93,0.849c-1.778,0-3.555-0.005-5.333,0.003c-0.531,0.006-0.928-0.035-0.917-0.749
			C159.831,49.849,161.191,43.249,166.007,37.877z"/>
		<path fill-rule="evenodd" clip-rule="evenodd" d="M354.717,78.881c-0.272-0.573-0.737-0.481-1.214-0.221
			c-0.251,0.138-0.526,0.234-0.789,0.351c-5.259,2.316-10.695,3.941-16.478,4.135c-5.175,0.176-9.88-1.166-13.851-4.601
			c-5.588-4.836-7.795-11.196-8.224-18.362c-0.062-1.045,0.487-1.039,1.224-1.048c6.291-0.097,12.584-0.147,18.841-0.959
			c4.579-0.59,9.091-1.449,13.262-3.545c6.377-3.209,8.713-9.874,5.512-15.983c-2.402-4.59-6.426-7.099-11.351-8.303
			c-10.332-2.53-20.494,1.719-25.499,10.732c-2.794,5.03-3.747,10.523-3.781,16.213c-0.016,4.994,0.731,9.396,2.527,13.62
			c3.188,7.491,8.583,12.352,16.818,13.647c6.054,0.953,11.817-0.421,17.495-2.341c1.722-0.582,3.398-1.291,5.003-2.158
			C354.696,79.792,354.964,79.407,354.717,78.881z M320.132,38.163c4.751-5.466,11.016-7.217,18.034-6.67
			c4.184,0.323,7.95,1.724,10.979,4.741c5.87,5.846,4.299,14.033-3.292,17.353c-4.315,1.888-8.898,2.653-13.523,3.146
			c-3.914,0.42-7.848,0.687-11.787,0.854c-1.826,0-3.651-0.008-5.479,0.006c-0.583,0.005-1.023-0.024-1.003-0.819
			C314.24,49.962,315.514,43.473,320.132,38.163z"/>
	</g>
	<g>
		<g>
			<path d="M45.009,93.5C20.544,93.5,0.64,73.598,0.64,49.132c0-24.464,19.904-44.369,44.369-44.369
				c24.463,0,44.366,19.905,44.366,44.369C89.375,73.598,69.472,93.5,45.009,93.5z M45.009,7.538
				c-22.937,0-41.597,18.661-41.597,41.594c0,22.938,18.66,41.6,41.597,41.6c22.933,0,41.594-18.661,41.594-41.6
				C86.603,26.199,67.942,7.538,45.009,7.538z"/>
		</g>
		<g>
			<path d="M79.883,50.52l-34.874-0.089L10.132,50.52c-0.765,0-1.388-0.62-1.388-1.388c0-0.763,0.623-1.385,1.388-1.385
				l34.875,0.089l34.875-0.089c0.767,0,1.387,0.622,1.387,1.385C81.27,49.9,80.649,50.52,79.883,50.52z"/>
		</g>
		<g>
			<path d="M46.394,14.259l-0.089,34.873l0.089,34.878c0,0.766-0.62,1.388-1.387,1.388c-0.767,0-1.385-0.622-1.385-1.388
				l0.089-34.875l-0.089-34.876c0-0.768,0.618-1.387,1.385-1.387C45.774,12.872,46.394,13.492,46.394,14.259z"/>
		</g>
		<g>
			<path d="M70.648,25.453L45.923,50.053L21.327,74.776c-0.54,0.541-1.418,0.541-1.96,0c-0.542-0.542-0.542-1.42,0-1.964
				l24.725-24.593l24.597-24.725c0.54-0.544,1.417-0.544,1.959,0C71.189,24.036,71.189,24.911,70.648,25.453z"/>
		</g>
		<g>
			<path d="M21.328,23.494l24.595,24.725l24.725,24.593c0.542,0.544,0.542,1.422,0,1.964c-0.54,0.538-1.418,0.538-1.959,0
				L44.091,50.051L19.367,25.453c-0.542-0.542-0.542-1.417,0-1.958C19.908,22.95,20.787,22.95,21.328,23.494z"/>
		</g>
	</g>
</g>
<g>
</g>
<g>
</g>
<g>
</g>
<g>
</g>
<g>
</g>
<g>
</g>
</svg>
