<?xml version="1.0" encoding="utf-8"?>
<!-- Generator: Adobe Illustrator 16.0.0, SVG Export Plug-In . SVG Version: 6.00 Build 0)  -->
<!DOCTYPE svg PUBLIC "-//W3C//DTD SVG 1.1//EN" "http://www.w3.org/Graphics/SVG/1.1/DTD/svg11.dtd">
<svg version="1.1" id="Layer_1" xmlns="http://www.w3.org/2000/svg" xmlns:xlink="http://www.w3.org/1999/xlink" x="0px" y="0px"
	 width="14.172px" height="14.172px" viewBox="0 0 14.172 14.172" enable-background="new 0 0 14.172 14.172" xml:space="preserve">
<g>
	<path stroke="#666666" stroke-miterlimit="10" d="M7.086,13.31c-3.431,0-6.224-2.791-6.224-6.224c0-3.431,2.792-6.224,6.224-6.224
		c3.432,0,6.224,2.792,6.224,6.224C13.31,10.518,10.518,13.31,7.086,13.31z M7.086,1.253c-3.217,0-5.833,2.617-5.833,5.833
		s2.617,5.835,5.833,5.835s5.834-2.618,5.834-5.835S10.303,1.253,7.086,1.253z"/>
</g>
<g>
	<path stroke="#666666" stroke-miterlimit="10" d="M7.086,11.256c-0.088,0-0.16-0.071-0.16-0.159V3.076
		c0-0.089,0.071-0.159,0.16-0.159s0.16,0.072,0.16,0.159v8.021C7.247,11.186,7.175,11.256,7.086,11.256z"/>
</g>
<g>
	<path stroke="#666666" stroke-miterlimit="10" d="M4.25,10.083c-0.041,0-0.081-0.017-0.113-0.046c-0.062-0.062-0.062-0.164,0-0.227
		l5.672-5.671c0.062-0.063,0.164-0.063,0.226,0c0.063,0.062,0.063,0.164,0,0.225l-5.672,5.673
		C4.332,10.066,4.291,10.083,4.25,10.083z"/>
</g>
<g>
	<path stroke="#666666" stroke-miterlimit="10" d="M11.097,7.247H3.075c-0.088,0-0.159-0.072-0.159-0.16
		c0-0.087,0.071-0.16,0.159-0.16h8.022c0.088,0,0.159,0.073,0.159,0.16C11.256,7.175,11.185,7.247,11.097,7.247z"/>
</g>
<g>
	<path stroke="#666666" stroke-miterlimit="10" d="M9.921,10.083c-0.04,0-0.08-0.017-0.112-0.046L4.137,4.365
		c-0.062-0.062-0.062-0.164,0-0.226c0.062-0.062,0.163-0.062,0.226,0l5.672,5.672c0.063,0.062,0.063,0.163,0,0.227
		C10.004,10.066,9.963,10.083,9.921,10.083z"/>
</g>
</svg>
