<?xml version="1.0" encoding="utf-8"?>
<!-- Generator: Adobe Illustrator 16.0.0, SVG Export Plug-In . SVG Version: 6.00 Build 0)  -->
<!DOCTYPE svg PUBLIC "-//W3C//DTD SVG 1.1//EN" "http://www.w3.org/Graphics/SVG/1.1/DTD/svg11.dtd">
<svg version="1.1" id="Layer_1" xmlns="http://www.w3.org/2000/svg" xmlns:xlink="http://www.w3.org/1999/xlink" x="0px" y="0px"
	 width="14.172px" height="14.172px" viewBox="0 0 14.172 14.172" enable-background="new 0 0 14.172 14.172" xml:space="preserve">
<g>
	<path fill="#666666" d="M7.086,0.579c-3.588,0-6.508,2.919-6.508,6.507c0,3.589,2.919,6.508,6.508,6.508s6.508-2.919,6.508-6.508
		C13.594,3.498,10.675,0.579,7.086,0.579z M7.086,12.638c-3.06,0-5.549-2.489-5.549-5.552c0-3.06,2.489-5.549,5.549-5.549
		c3.061,0,5.551,2.489,5.551,5.549C12.637,10.146,10.146,12.638,7.086,12.638z"/>
	<path fill="#666666" d="M11.098,6.643H8.158l2.076-2.077c0.084-0.083,0.132-0.195,0.132-0.313c0.001-0.119-0.046-0.231-0.13-0.313
		c-0.168-0.169-0.461-0.168-0.627-0.001L7.53,6.017V3.076c0-0.244-0.199-0.443-0.444-0.443S6.642,2.832,6.642,3.076v2.941
		l-2.08-2.08C4.393,3.771,4.104,3.771,3.937,3.939c-0.172,0.172-0.172,0.453,0,0.626l2.078,2.078h-2.94
		c-0.244,0-0.443,0.199-0.443,0.444s0.199,0.444,0.443,0.444h2.941l-2.08,2.081c-0.171,0.172-0.171,0.452,0.009,0.634
		c0.17,0.156,0.444,0.161,0.619-0.008l2.079-2.079v2.938c0,0.243,0.199,0.441,0.444,0.441c0.12,0,0.233-0.047,0.317-0.132
		c0.083-0.084,0.128-0.195,0.127-0.31V8.159l2.088,2.088c0.172,0.155,0.431,0.164,0.619-0.01c0.171-0.175,0.17-0.455-0.002-0.628
		L8.156,7.53h2.941c0.243,0,0.441-0.199,0.441-0.444S11.341,6.643,11.098,6.643z"/>
</g>
</svg>
