<?xml version="1.0" encoding="utf-8"?>
<!-- Generator: Adobe Illustrator 16.2.1, SVG Export Plug-In . SVG Version: 6.00 Build 0)  -->
<!DOCTYPE svg PUBLIC "-//W3C//DTD SVG 1.1//EN" "http://www.w3.org/Graphics/SVG/1.1/DTD/svg11.dtd">
<svg version="1.1" id="Layer_1" xmlns="http://www.w3.org/2000/svg" xmlns:xlink="http://www.w3.org/1999/xlink" x="0px" y="0px"
	 width="704px" height="700px" viewBox="0 0 704 700" enable-background="new 0 0 704 700" xml:space="preserve">
<g>
	<g opacity="0.55">
		<path d="M634.007,313.29c54.416,106.801,11.8,237.97-95.001,292.391c-106.799,54.416-237.968,11.794-292.381-95.005
			c-54.421-106.8-11.803-237.964,94.997-292.385C448.423,163.875,579.586,206.495,634.007,313.29z M258.724,504.505
			c51.023,100.139,173.985,140.086,274.112,89.065c100.125-51.018,140.086-173.978,89.062-274.112
			c-51.011-100.121-173.981-140.075-274.109-89.061C247.664,281.417,207.711,404.388,258.724,504.505z"/>
	</g>
	<g opacity="0.7">
		<path d="M602.3,484.297c-18.753,118.389-130.33,199.456-248.72,180.709c-118.388-18.753-199.453-130.332-180.699-248.72
			c18.745-118.39,130.322-199.453,248.713-180.705C539.982,254.332,621.046,365.909,602.3,484.297z M186.296,418.408
			c-17.581,111.003,58.417,215.597,169.41,233.173c110.988,17.578,215.593-58.411,233.171-169.411
			c17.583-110.982-58.419-215.588-169.41-233.169C308.475,231.423,203.874,307.426,186.296,418.408z"/>
	</g>
	<g opacity="0.7">
		<path d="M476.131,604.006c-84.757,84.757-222.674,84.759-307.436,0.004c-84.756-84.758-84.754-222.677,0.004-307.431
			c84.754-84.761,222.667-84.758,307.429-0.002C560.885,381.333,560.885,519.246,476.131,604.006z M178.308,306.179
			c-79.469,79.472-79.465,208.758,0,288.219c79.458,79.457,208.751,79.467,288.216,0c79.457-79.453,79.456-208.754-0.002-288.216
			C387.059,226.722,257.761,226.727,178.308,306.179z"/>
	</g>
	<g opacity="0.55">
		<path d="M303.697,626.694C185.308,645.444,73.729,564.379,54.973,445.99c-18.749-118.388,62.319-229.967,180.708-248.715
			c118.389-18.755,229.962,62.311,248.716,180.702C503.148,496.364,422.085,607.939,303.697,626.694z M237.81,210.691
			C126.805,228.273,50.817,332.871,68.399,443.865C85.978,554.854,190.573,630.857,301.57,613.273
			c110.985-17.574,186.983-122.183,169.407-233.172C453.397,269.11,348.79,193.112,237.81,210.691z"/>
	</g>
	<g opacity="0.35">
		<path d="M150.859,543.696c-106.8-54.42-149.42-185.587-95.008-292.391c54.42-106.798,185.589-149.416,292.387-94.997
			c106.802,54.414,149.418,185.58,95.002,292.383C388.824,555.493,257.66,598.109,150.859,543.696z M342.075,168.412
			c-100.139-51.021-223.097-11.064-274.112,89.066c-51.017,100.123-11.071,223.092,89.063,274.109
			c100.118,51.017,223.09,11.061,274.108-89.064C482.15,342.394,442.194,219.425,342.075,168.412z"/>
	</g>
	<g opacity="0.2">
		<path d="M75.995,386.711C21.579,279.91,64.198,148.742,170.994,94.319c106.804-54.414,237.97-11.794,292.386,95.006
			c54.421,106.8,11.799,237.962-95.001,292.383C261.578,536.127,130.416,493.509,75.995,386.711z M451.278,195.494
			C400.254,95.358,277.292,55.41,177.167,106.432C77.041,157.446,37.08,280.408,88.104,380.541
			c51.011,100.121,173.981,140.079,274.109,89.061C462.338,418.583,502.292,295.613,451.278,195.494z"/>
	</g>
	<g opacity="0.2">
		<path d="M107.703,215.704C126.455,97.316,238.034,16.248,356.422,34.994c118.389,18.755,199.455,130.333,180.702,248.72
			c-18.749,118.393-130.325,199.452-248.715,180.704C170.018,445.668,88.955,334.093,107.703,215.704z M523.705,281.592
			c17.58-111.002-58.416-215.598-169.409-233.171c-110.99-17.581-215.593,58.409-233.171,169.41
			C103.545,328.812,179.542,433.42,290.535,451C401.525,468.575,506.129,392.578,523.705,281.592z"/>
	</g>
	<g opacity="0.2">
		<path d="M233.869,95.993c84.758-84.754,222.678-84.756,307.437-0.001c84.756,84.758,84.753,222.676-0.003,307.431
			c-84.757,84.761-222.668,84.759-307.43,0.003C149.114,318.666,149.114,180.752,233.869,95.993z M531.697,393.821
			c79.466-79.472,79.462-208.76-0.003-288.218c-79.46-79.462-208.75-79.47-288.216,0c-79.456,79.453-79.46,208.751,0.002,288.214
			C322.943,473.277,452.238,473.277,531.697,393.821z"/>
	</g>
	<g opacity="0.2">
		<path d="M406.306,73.305c118.389-18.748,229.969,62.318,248.722,180.707c18.748,118.389-62.32,229.964-180.706,248.713
			c-118.391,18.754-229.962-62.31-248.718-180.701C206.854,203.634,287.917,92.059,406.306,73.305z M472.195,489.311
			c111.002-17.583,186.99-122.183,169.407-233.173C624.024,145.144,519.432,69.145,408.43,86.727
			c-110.982,17.576-186.984,122.179-169.406,233.171C256.604,430.889,361.207,506.889,472.195,489.311z"/>
	</g>
	<g opacity="0.35">
		<path d="M559.145,156.305c106.799,54.419,149.418,185.588,95.002,292.388c-54.418,106.8-185.587,149.416-292.383,94.999
			C254.961,489.274,212.346,358.113,266.76,251.31C321.181,144.509,452.343,101.892,559.145,156.305z M367.928,531.589
			c100.137,51.021,223.096,11.062,274.111-89.064c51.018-100.129,11.07-223.092-89.066-274.113
			c-100.117-51.014-223.087-11.062-274.106,89.066C227.852,357.606,267.806,480.575,367.928,531.589z"/>
	</g>
</g>
<g>
</g>
<g>
</g>
<g>
</g>
<g>
</g>
<g>
</g>
<g>
</g>
</svg>
