<?xml version="1.0" encoding="utf-8"?>
<!-- Generator: Adobe Illustrator 16.2.1, SVG Export Plug-In . SVG Version: 6.00 Build 0)  -->
<!DOCTYPE svg PUBLIC "-//W3C//DTD SVG 1.1//EN" "http://www.w3.org/Graphics/SVG/1.1/DTD/svg11.dtd">
<svg version="1.1" id="Layer_1" xmlns="http://www.w3.org/2000/svg" xmlns:xlink="http://www.w3.org/1999/xlink" x="0px" y="0px"
	 width="500px" height="500px" viewBox="0 0 500 500" enable-background="new 0 0 500 500" xml:space="preserve">
<g>
	<g>
		<path d="M250.003,461.207c-116.459,0-211.208-94.748-211.208-211.207c0-116.458,94.749-211.208,211.208-211.208
			c116.456,0,211.202,94.749,211.202,211.208C461.205,366.459,366.459,461.207,250.003,461.207z M250.003,51.994
			C140.816,51.994,51.995,140.818,51.995,250c0,109.184,88.821,198.008,198.008,198.008c109.173,0,198.004-88.824,198.004-198.008
			C448.008,140.818,359.177,51.994,250.003,51.994z"/>
	</g>
	<g>
		<path d="M416.016,256.6l-166.01-0.428L83.984,256.6c-3.648,0-6.602-2.951-6.602-6.6c0-3.646,2.954-6.598,6.602-6.598L250,243.829
			l166.016-0.427c3.648,0,6.602,2.952,6.602,6.598C422.617,253.648,419.664,256.6,416.016,256.6z"/>
	</g>
	<g>
		<path d="M256.601,83.984l-0.431,166.012l0.431,166.021c0,3.648-2.956,6.604-6.604,6.604c-3.649,0-6.597-2.955-6.597-6.604
			l0.427-166.014L243.4,83.984c0-3.646,2.948-6.602,6.597-6.602C253.645,77.382,256.601,80.338,256.601,83.984z"/>
	</g>
	<g>
		<path d="M372.059,137.276L254.361,254.367L137.273,372.061c-2.575,2.58-6.751,2.58-9.332,0s-2.58-6.758,0-9.336l117.697-117.086
			l117.089-117.696c2.574-2.581,6.749-2.583,9.331-0.002C374.639,130.52,374.639,134.696,372.059,137.276z"/>
	</g>
	<g>
		<path d="M137.278,127.942l117.083,117.693l117.697,117.089c2.58,2.578,2.58,6.756,0,9.336c-2.574,2.578-6.751,2.578-9.331,0
			L245.639,254.363L127.941,137.276c-2.58-2.58-2.58-6.756,0-9.336S134.698,125.362,137.278,127.942z"/>
	</g>
</g>
</svg>
