<?xml version="1.0" encoding="utf-8"?>
<!-- Generator: Adobe Illustrator 16.2.1, SVG Export Plug-In . SVG Version: 6.00 Build 0)  -->
<!DOCTYPE svg PUBLIC "-//W3C//DTD SVG 1.1//EN" "http://www.w3.org/Graphics/SVG/1.1/DTD/svg11.dtd">
<svg version="1.1" id="Layer_1" xmlns="http://www.w3.org/2000/svg" xmlns:xlink="http://www.w3.org/1999/xlink" x="0px" y="0px"
	 width="500px" height="500px" viewBox="0 0 500 500" enable-background="new 0 0 500 500" xml:space="preserve">
<g>
	<g>
		<circle cx="249.524" cy="252.697" r="215.534"/>
	</g>
	<g>
		<g>
			<path fill="#FFFFFF" d="M30.708,352.482c-0.674-68.097,1.348-136.868,0-204.966c24.947-0.674,50.567-0.674,75.514-1.349
				c120.688-1.349,242.05,6.068,362.738,1.349c1.349,68.098-0.674,136.869,0,204.966c-24.946,0.675-49.894,0.675-74.84,1.35
				C272.758,355.181,152.07,347.764,30.708,352.482L30.708,352.482z"/>
		</g>
		<g>
			<path d="M362.94,356.021c-40.492,0-81.583-0.791-121.321-1.554c-39.683-0.763-80.717-1.553-121.098-1.553
				c-32.88,0-62.233,0.52-89.734,1.59l-2.082,0.08l-0.02-2.081c-0.3-30.277-0.063-61.194,0.166-91.095
				c0.287-37.385,0.583-76.042-0.166-113.853l-0.04-2.008l2.008-0.055c12.486-0.337,25.348-0.509,37.784-0.674
				c12.423-0.166,25.27-0.337,37.73-0.674c9.94-0.111,20.389-0.167,31.088-0.167c40.313,0,81.361,0.79,121.058,1.553
				c39.713,0.764,80.778,1.554,121.126,1.554c32.836,0,62.092-0.521,89.44-1.589l2.062-0.081l0.04,2.062
				c0.749,37.866,0.453,76.552,0.166,113.964c-0.228,29.883-0.466,60.781-0.166,91.022l0.02,1.988l-1.987,0.054
				c-12.487,0.337-25.177,0.51-37.446,0.676c-12.26,0.165-24.934,0.336-37.394,0.674
				C384.178,355.965,373.681,356.021,362.94,356.021z M120.521,348.87c40.419,0,81.474,0.789,121.176,1.553
				c39.72,0.763,80.79,1.552,121.243,1.552c10.726,0,21.208-0.054,31.157-0.165c12.454-0.338,25.145-0.508,37.414-0.675
				c11.607-0.156,23.588-0.318,35.407-0.62c-0.271-29.642-0.04-59.861,0.185-89.105c0.281-36.705,0.573-74.64-0.126-111.792
				c-26.812,1.018-55.472,1.513-87.537,1.513c-40.388,0-81.472-0.791-121.205-1.554c-39.677-0.763-80.705-1.552-120.979-1.552
				c-10.684,0-21.118,0.057-31.011,0.167c-12.456,0.337-25.316,0.509-37.753,0.674c-11.757,0.157-23.894,0.318-35.722,0.622
				c0.7,37.223,0.409,75.204,0.127,111.954c-0.224,29.196-0.455,59.366-0.186,88.942C59.665,349.365,88.417,348.87,120.521,348.87z"
				/>
		</g>
	</g>
	<g>
		<g>
			<g>
				<g>
					<path fill="#FFFFFF" d="M51.609,327.537c12.136-0.674,24.947-0.674,37.083-0.674c41.803-0.675,82.931-1.349,124.733,0
						c39.106,1.348,78.211,2.021,117.317,2.695c38.432,0,76.188-0.674,114.62-2.021"/>
				</g>
			</g>
			<g>
				<g>
					<path d="M330.742,331.582c-38.494-0.663-78.264-1.349-117.387-2.698c-41.526-1.339-81.57-0.693-123.964-0.01l-0.667,0.011
						c-12.269,0-24.923,0-37.002,0.672l-0.225-4.039c12.192-0.678,24.903-0.678,37.195-0.678l0.635-0.011
						c42.444-0.685,82.536-1.33,124.164,0.013c39.094,1.348,78.844,2.033,117.287,2.695c38.278,0,75.747-0.661,114.514-2.021
						l0.142,4.043C406.618,330.921,369.103,331.582,330.742,331.582z"/>
				</g>
			</g>
		</g>
		<g>
			<g>
				<g>
					<path fill="#FFFFFF" d="M51.609,317.423c41.802-1.349,82.931-2.696,124.733-2.021c89.673,2.021,179.346,4.719,269.02,2.021"/>
				</g>
			</g>
			<g>
				<g>
					<path d="M364.542,320.574c-53.19,0-106.354-1.244-158.356-2.461c-9.963-0.232-19.926-0.465-29.889-0.69
						c-41.299-0.669-81.132,0.62-123.302,1.98l-1.32,0.042l-0.13-4.044l1.321-0.042c42.22-1.361,82.101-2.646,123.51-1.981
						c9.977,0.226,19.941,0.458,29.906,0.69c78.348,1.833,159.365,3.729,239.021,1.333l0.121,4.044
						C418.562,320.252,391.544,320.574,364.542,320.574z"/>
				</g>
			</g>
		</g>
		<g>
			<g>
				<g>
					<path fill="#FFFFFF" d="M51.609,307.31c45.848-2.022,92.37-2.697,138.218-2.022c25.621,0.674,51.242,1.348,76.863,2.022
						c42.477,2.023,85.627,1.349,128.104,0.675c16.855,0,33.711,0,50.567-0.675"/>
				</g>
			</g>
			<g>
				<g>
					<path d="M330.793,310.681c-21.407,0-42.896-0.338-64.2-1.35l-76.819-2.022c-45.906-0.676-92.369,0.006-138.075,2.022
						l-0.179-4.042c45.785-2.021,92.328-2.7,138.337-2.024l76.886,2.022c42.624,2.03,86.036,1.341,128.019,0.674
						c16.587,0,33.704,0,50.521-0.673l0.16,4.043c-16.896,0.676-34.055,0.676-50.647,0.676
						C373.736,310.342,352.307,310.681,330.793,310.681z"/>
				</g>
			</g>
		</g>
		<g>
			<g>
				<g>
					<path fill="#FFFFFF" d="M51.609,296.522c50.567-0.675,101.134-2.023,151.702-0.675c34.386,0.675,69.446,2.023,103.832,2.697
						c45.848,0.674,92.37,0,138.219-2.022"/>
				</g>
			</g>
			<g>
				<g>
					<path d="M341.646,300.82c-11.531,0-23.047-0.085-34.531-0.253c-17.212-0.338-34.869-0.853-51.945-1.35
						c-17.066-0.496-34.714-1.011-51.896-1.348c-40.425-1.077-81.534-0.419-121.291,0.216c-10.115,0.162-20.23,0.323-30.346,0.459
						l-0.054-4.046c10.112-0.135,20.223-0.296,30.334-0.458c39.799-0.637,80.951-1.295,121.448-0.216
						c17.189,0.337,34.845,0.852,51.923,1.349c17.064,0.497,34.712,1.013,51.896,1.35c45.922,0.673,92.382-0.005,138.088-2.021
						l0.18,4.041C411.096,300.06,376.309,300.82,341.646,300.82z"/>
				</g>
			</g>
		</g>
		<g>
			<g>
				<g>
					<path fill="#FFFFFF" d="M51.609,286.409c14.833-0.675,28.992-0.675,43.825-1.349c74.84-1.35,150.354,1.349,225.195,3.37
						c41.802,0.675,82.931-0.674,124.733-2.021"/>
				</g>
			</g>
			<g>
				<g>
					<path d="M343.793,290.636c-7.697,0-15.417-0.057-23.198-0.182c-10.496-0.283-20.982-0.581-31.48-0.877
						c-63.58-1.797-129.324-3.65-193.644-2.494c-7.384,0.336-14.764,0.508-21.902,0.673c-7.116,0.166-14.474,0.336-21.868,0.673
						l-0.184-4.041c7.439-0.337,14.82-0.51,21.958-0.676c7.115-0.164,14.473-0.336,21.868-0.672
						c64.467-1.162,130.259,0.696,193.886,2.493c10.495,0.296,20.982,0.593,31.454,0.877c41.294,0.666,81.124-0.62,123.293-1.981
						l1.32-0.041l0.131,4.042l-1.32,0.043C409.818,289.579,377.067,290.636,343.793,290.636z"/>
				</g>
			</g>
		</g>
		<g>
			<g>
				<g>
					<path fill="#FFFFFF" d="M51.609,276.295c78.21-2.696,157.096-1.348,235.308,0.674c52.59,1.349,105.855,1.349,158.445-0.674"/>
				</g>
			</g>
			<g>
				<g>
					<path d="M357.981,279.924c-23.105,0-46.847-0.311-71.116-0.933c-75.608-1.955-156.43-3.391-235.186-0.675l-0.14-4.043
						c78.863-2.72,159.758-1.283,235.43,0.674c56.059,1.438,109.323,1.211,158.313-0.674l0.156,4.043
						C417.576,279.388,388.33,279.924,357.981,279.924z"/>
				</g>
			</g>
		</g>
		<g>
			<g>
				<g>
					<path fill="#FFFFFF" d="M51.609,266.182c20.227-1.35,40.454-0.675,60.681-1.35c23.598-1.347,47.196-0.673,70.794,0
						c87.65,1.35,174.627,4.047,262.278,1.35"/>
				</g>
			</g>
			<g>
				<g>
					<path d="M364.005,269.352c-43.108,0-86.064-0.795-128.147-1.574c-17.296-0.319-35.181-0.65-52.805-0.922
						c-23.186-0.663-47.136-1.348-70.648-0.003c-8.165,0.272-16.405,0.327-24.374,0.381c-11.903,0.079-24.211,0.161-36.288,0.967
						l-0.269-4.037c12.197-0.813,24.567-0.895,36.529-0.975c7.942-0.053,16.155-0.109,24.219-0.377
						c23.635-1.353,47.674-0.665,70.919,0c17.604,0.27,35.491,0.602,52.79,0.921c68.53,1.269,139.394,2.581,209.368,0.427
						l0.124,4.045C418.352,269.037,391.145,269.352,364.005,269.352z"/>
				</g>
			</g>
		</g>
		<g>
			<g>
				<g>
					<path fill="#FFFFFF" d="M51.609,256.068c47.196-2.698,94.393-2.698,141.589-2.023c24.272,0.675,49.219,1.349,73.492,2.023
						c41.803,1.349,82.93,2.023,124.732,1.349c18.205-0.675,35.735-1.349,53.939-1.349"/>
				</g>
			</g>
			<g>
				<g>
					<path d="M357.869,259.705c-27.918,0-57.632-0.531-91.244-1.615c-12.127-0.337-24.432-0.674-36.736-1.012
						c-12.305-0.336-24.61-0.674-36.747-1.011c-41.945-0.599-91.574-0.828-141.417,2.021l-0.231-4.039
						c49.971-2.854,99.69-2.626,141.734-2.025c12.163,0.338,24.467,0.674,36.771,1.01c12.305,0.338,24.61,0.676,36.747,1.013
						c47.354,1.528,86.959,1.956,124.644,1.348l1.842-0.067c17.75-0.659,34.518-1.281,52.131-1.281v4.047
						c-17.538,0-34.27,0.619-51.981,1.276l-1.883,0.069C380.498,259.616,369.332,259.705,357.869,259.705z"/>
				</g>
			</g>
		</g>
		<g>
			<g>
				<g>
					<path fill="#FFFFFF" d="M51.609,245.281c15.507-0.674,31.689-0.674,47.196-0.674c35.734-0.675,72.143-1.349,107.877,0
						c35.734,0.674,71.469,2.022,107.204,2.697c23.598,0,47.195,0.674,70.794-0.674c20.227-0.675,40.454,0,60.682-1.348"/>
				</g>
			</g>
			<g>
				<g>
					<path d="M349.172,249.493c-5.913,0-11.788-0.042-17.602-0.083c-5.798-0.041-11.792-0.084-17.684-0.084
						c-17.914-0.338-36.087-0.852-53.659-1.349c-17.563-0.497-35.726-1.011-53.583-1.348c-35.939-1.356-72.472-0.667-107.801,0
						c-15.596,0-31.683,0-47.146,0.672l-0.176-4.041c15.552-0.676,31.684-0.676,47.285-0.676
						c35.347-0.668,71.937-1.358,107.954,0.001c17.838,0.336,36.009,0.851,53.583,1.348c17.563,0.497,35.725,1.011,53.583,1.348
						c0.023,0,0.047,0,0.068,0c5.847,0,11.825,0.043,17.605,0.084c17.37,0.125,35.333,0.253,52.967-0.755
						c8.165-0.273,16.405-0.327,24.374-0.381c11.904-0.08,24.212-0.161,36.288-0.966l0.269,4.037
						c-12.196,0.812-24.567,0.896-36.529,0.975c-7.942,0.053-16.154,0.107-24.219,0.377
						C372.94,249.326,360.989,249.493,349.172,249.493z"/>
				</g>
			</g>
		</g>
		<g>
			<g>
				<g>
					<path fill="#FFFFFF" d="M51.609,235.167c13.484-0.674,26.969-0.674,40.454-0.674c40.453-0.674,80.908-1.348,121.362,0
						c37.758,0.674,76.189,2.023,113.946,2.697c39.105,0,78.886-0.674,117.991-2.023"/>
				</g>
			</g>
			<g>
				<g>
					<path d="M327.371,239.212c-18.924-0.338-38.293-0.852-57.026-1.349c-18.725-0.497-38.086-1.011-56.956-1.348
						c-40.434-1.349-81.539-0.663-121.292,0c-13.267,0-26.952,0-40.386,0.671l-0.203-4.041c13.536-0.677,27.272-0.677,40.556-0.677
						c39.767-0.663,80.924-1.349,121.429,0.001c18.856,0.336,38.226,0.851,56.96,1.348c18.723,0.498,38.084,1.012,56.953,1.348
						c39.312,0,78.986-0.68,117.886-2.021l0.14,4.043C406.485,238.531,366.766,239.212,327.371,239.212z"/>
				</g>
			</g>
		</g>
		<g>
			<g>
				<g>
					<path fill="#FFFFFF" d="M51.609,225.054c79.56-2.697,159.119-1.349,238.679,0.673c51.916,1.349,103.157,1.349,155.074-0.673"/>
				</g>
			</g>
			<g>
				<g>
					<path d="M360.035,228.689c-22.509,0-45.69-0.313-69.8-0.94c-88.649-2.253-163.145-3.23-238.558-0.675l-0.137-4.043
						c75.512-2.56,150.074-1.583,238.798,0.673c55.58,1.444,106.262,1.224,154.943-0.673l0.158,4.043
						C417.793,228.152,389.494,228.689,360.035,228.689z"/>
				</g>
			</g>
		</g>
		<g>
			<g>
				<g>
					<path fill="#FFFFFF" d="M51.609,214.94c45.848-2.022,92.37-2.697,138.218-2.022c25.621,0.674,51.242,1.348,76.863,2.022
						c42.477,2.022,85.627,1.349,128.104,0.674c16.855,0,33.711,0,50.567-0.674"/>
				</g>
			</g>
			<g>
				<g>
					<path d="M330.793,218.311c-21.407,0-42.896-0.337-64.2-1.351l-76.819-2.021c-45.906-0.674-92.369,0.005-138.075,2.022
						l-0.179-4.042c45.785-2.02,92.328-2.7,138.337-2.024l76.886,2.023c42.624,2.029,86.036,1.34,128.019,0.673
						c16.587,0,33.704,0,50.521-0.673l0.16,4.043c-16.896,0.675-34.055,0.675-50.647,0.675
						C373.736,217.971,352.307,218.311,330.793,218.311z"/>
				</g>
			</g>
		</g>
		<g>
			<g>
				<g>
					<path fill="#FFFFFF" d="M51.609,204.152c49.219-0.674,99.112-2.023,148.331-0.674c35.735,0.674,71.469,2.022,107.203,2.697
						c45.848,0.674,92.37,0,138.219-2.022"/>
				</g>
			</g>
			<g>
				<g>
					<path d="M341.646,208.45c-11.531,0-23.047-0.084-34.531-0.253c-17.885-0.337-36.057-0.852-53.629-1.349
						c-17.563-0.497-35.726-1.011-53.583-1.348c-39.446-1.081-79.864-0.42-118.952,0.22c-9.79,0.161-19.565,0.32-29.313,0.454
						l-0.056-4.045c9.745-0.133,19.516-0.293,29.303-0.453c39.132-0.642,79.595-1.303,119.112-0.221
						c17.859,0.337,36.03,0.851,53.604,1.348c17.564,0.497,35.724,1.011,53.583,1.348c45.922,0.675,92.383-0.005,138.089-2.021
						l0.18,4.042C411.096,207.688,376.309,208.45,341.646,208.45z"/>
				</g>
			</g>
		</g>
		<g>
			<g>
				<g>
					<path fill="#FFFFFF" d="M51.609,194.039c88.325-2.697,177.323,0,265.647,1.349c42.478,1.348,85.628,0.674,128.105-1.349"/>
				</g>
			</g>
			<g>
				<g>
					<path d="M362.454,198.106c-15.506,0-30.609-0.232-45.262-0.698c-17.536-0.267-35.436-0.594-52.744-0.91
						c-69.847-1.276-142.07-2.596-212.777-0.438l-0.124-4.043c70.808-2.163,143.081-0.841,212.975,0.436
						c17.308,0.316,35.202,0.643,52.767,0.911c39.709,1.26,82.756,0.807,127.978-1.345l0.191,4.04
						C416.821,197.423,389.053,198.106,362.454,198.106z"/>
				</g>
			</g>
		</g>
		<g>
			<g>
				<g>
					<path fill="#FFFFFF" d="M51.609,183.925c26.969-1.349,53.939-1.349,80.907-2.023c69.447-0.674,138.893,4.045,208.339,3.371
						c35.06,0,69.446,0.674,104.507-1.348"/>
				</g>
			</g>
			<g>
				<g>
					<path d="M382.402,187.403c-6.895,0-13.744-0.026-20.54-0.053c-6.982-0.027-13.981-0.054-21.007-0.054
						c-34.741,0.336-70.066-0.692-104.228-1.687c-34.122-0.994-69.405-2.023-104.09-1.685c-8.968,0.224-18.112,0.376-26.956,0.524
						c-17.661,0.295-35.925,0.599-53.871,1.496l-0.203-4.04c18.014-0.901,36.312-1.206,54.006-1.5
						c8.836-0.147,17.971-0.299,26.953-0.524c34.791-0.338,70.117,0.691,104.278,1.686c34.122,0.994,69.406,2.022,104.091,1.685
						c0.013,0,0.029,0,0.044,0c7.036,0,14.024,0.027,20.998,0.055c27.236,0.104,55.397,0.214,83.368-1.399l0.231,4.039
						C424.379,187.162,403.201,187.403,382.402,187.403z"/>
				</g>
			</g>
		</g>
		<g>
			<g>
				<g>
					<path fill="#FFFFFF" d="M51.609,173.812c43.825-2.022,87.65-2.697,131.475-1.349c87.65,1.349,174.627,4.046,262.278,1.349"/>
				</g>
			</g>
			<g>
				<g>
					<path d="M364.005,176.981c-43.108,0-86.064-0.795-128.147-1.574c-17.296-0.32-35.181-0.651-52.805-0.922
						c-41.265-1.27-84.219-0.828-131.351,1.347l-0.187-4.042c47.236-2.179,90.293-2.621,131.631-1.349
						c17.6,0.271,35.486,0.602,52.785,0.921c68.53,1.269,139.394,2.58,209.368,0.427l0.124,4.043
						C418.352,176.667,391.145,176.981,364.005,176.981z"/>
				</g>
			</g>
		</g>
	</g>
	<g>
		<polygon fill="#FFFFFF" points="145.551,307.727 114.5,275.316 114.997,183.956 151.619,220.578 		"/>
		<path d="M147.251,312.426l-34.778-36.301L113,179.099l40.701,40.7L147.251,312.426z M116.527,274.509l27.324,28.52l5.686-81.671
			l-32.544-32.543L116.527,274.509z"/>
	</g>
	<g>
		<polygon fill="#FFFFFF" points="350.033,199.046 381.085,231.458 380.588,322.817 343.966,286.195 		"/>
		<path d="M382.585,327.674l-40.701-40.698l6.451-92.628l34.778,36.302L382.585,327.674z M346.049,285.416l32.543,32.545
			l0.466-85.696l-27.323-28.52L346.049,285.416z"/>
	</g>
	<g>
		<g>
			<path fill="#FFFFFF" d="M352.317,469.126c-68.098,0-136.195,0-204.293,0c-1.348-13.484-0.674-27.644-0.674-41.128
				c-2.022-81.582,0-162.491,2.023-244.073c0.673-51.242,0-101.81-1.349-153.051c68.098,0,136.195,0,204.293,0
				c0.674,18.205,0.674,36.408,1.349,54.613C355.688,213.591,347.598,341.021,352.317,469.126L352.317,469.126z"/>
		</g>
		<g>
			<path d="M354.416,471.148H146.194l-0.182-1.821c-1.024-10.247-0.894-20.898-0.768-31.199c0.041-3.339,0.083-6.793,0.083-10.13
				c-2.015-81.249,0.025-163.538,1.998-243.12l0.025-1.004c0.608-46.254,0.18-94.862-1.349-152.947l-0.054-2.076h208.318
				l0.073,1.948c0.337,9.12,0.509,18.384,0.675,27.343c0.165,8.941,0.336,18.186,0.673,27.269
				c0.894,56.603-0.2,113.951-1.259,169.411c-1.339,70.158-2.725,142.706-0.089,214.228L354.416,471.148z M149.868,467.104h200.353
				c-2.536-70.955-1.166-142.83,0.163-212.357c1.059-55.426,2.152-112.737,1.26-169.227c-0.338-9.078-0.509-18.342-0.675-27.301
				c-0.152-8.302-0.312-16.868-0.604-25.322H150.101c1.486,57.226,1.897,105.273,1.295,151.055l-0.025,1.027
				c-1.972,79.532-4.011,161.771-1.998,242.969c0.001,3.412-0.042,6.879-0.083,10.23
				C149.172,447.751,149.05,457.631,149.868,467.104z"/>
		</g>
	</g>
	<g>
		<g>
			<g>
				<g>
					<path fill="#FFFFFF" d="M164.88,438.111c48.545-2.697,96.416,2.022,144.96,0c8.765,0,18.204,0.674,26.97,0"/>
				</g>
			</g>
			<g>
				<g>
					<path d="M282.743,440.652c-14.14,0-28.211-0.348-41.997-0.688c-24.783-0.61-50.41-1.242-75.753,0.166l-0.225-4.04
						c25.507-1.417,51.215-0.781,76.078-0.17c22.547,0.555,45.859,1.13,68.91,0.169l0.085-0.001c2.923,0,5.968,0.075,8.914,0.148
						c5.966,0.146,12.134,0.3,17.9-0.144l0.31,4.033c-5.969,0.461-12.243,0.304-18.31,0.155c-2.908-0.072-5.913-0.147-8.773-0.148
						C300.847,440.51,291.78,440.652,282.743,440.652z"/>
				</g>
			</g>
		</g>
		<g>
			<g>
				<g>
					<path fill="#FFFFFF" d="M164.88,413.165c50.568-2.697,101.135,2.022,151.703,0c6.742,0,13.484,0,20.228,0"/>
				</g>
			</g>
			<g>
				<g>
					<path d="M288.292,415.705c-14.787,0-29.541-0.348-43.996-0.687c-26.006-0.61-52.897-1.243-79.308,0.166l-0.216-4.04
						c26.566-1.416,53.536-0.782,79.619-0.171c23.646,0.556,48.096,1.131,72.112,0.17l0.08-0.002h20.228v4.046h-20.187
						C307.213,415.562,297.745,415.705,288.292,415.705z"/>
				</g>
			</g>
		</g>
		<g>
			<g>
				<g>
					<path fill="#FFFFFF" d="M164.88,388.218c3.371,0,6.742,0,10.114-0.675c53.938-2.022,107.877,2.698,161.816,0.675"/>
				</g>
			</g>
			<g>
				<g>
					<path d="M307.099,390.753c-17.222,0-34.415-0.43-51.247-0.851c-26.435-0.661-53.768-1.345-80.623-0.344
						c-3.513,0.683-6.986,0.683-10.349,0.683v-4.046c3.364,0,6.542,0,9.717-0.635l0.321-0.039
						c27.033-1.013,54.485-0.327,81.035,0.337c26.486,0.663,53.874,1.347,80.781,0.338l0.151,4.044
						C326.993,390.61,317.038,390.753,307.099,390.753z"/>
				</g>
			</g>
		</g>
		<g>
			<g>
				<g>
					<path fill="#FFFFFF" d="M164.88,363.271c5.394,0,11.462,0,16.856,0c51.916-2.022,103.158,2.022,155.074,0"/>
				</g>
			</g>
			<g>
				<g>
					<path d="M303.957,365.876c-15.057,0-30.032-0.294-44.724-0.582c-25.329-0.496-51.52-1.01-77.419-0.001l-0.078,0.001H164.88
						v-4.045h16.816c26.005-1.013,52.242-0.497,77.617,0.001c25.328,0.495,51.519,1.008,77.418,0l0.158,4.043
						C325.927,365.719,314.92,365.876,303.957,365.876z"/>
				</g>
			</g>
		</g>
		<g>
			<g>
				<g>
					<path fill="#FFFFFF" d="M164.88,338.325c6.742,0,13.485,0,20.227,0c50.568-2.023,101.135,2.695,151.704,0"/>
				</g>
			</g>
			<g>
				<g>
					<path d="M301.251,341.2c-14.776,0-29.499-0.346-43.952-0.686c-23.646-0.554-48.095-1.131-72.11-0.169l-0.082,0.002H164.88
						v-4.046h20.187c24.13-0.964,48.631-0.389,72.327,0.168c26.007,0.612,52.896,1.244,79.308-0.165l0.216,4.04
						C325.071,340.977,313.144,341.199,301.251,341.2z"/>
				</g>
			</g>
		</g>
		<g>
			<g>
				<g>
					<path fill="#FFFFFF" d="M164.88,313.378c10.114-0.675,20.227,0,30.341,0c47.196-2.022,94.393,2.696,141.589,0"/>
				</g>
			</g>
			<g>
				<g>
					<path d="M303.622,316.254c-13.796,0-27.538-0.347-41.029-0.687c-22.063-0.553-44.879-1.126-67.285-0.168l-0.086,0.002
						c-3.394,0-6.833-0.077-10.159-0.15c-6.584-0.147-13.396-0.298-20.047,0.146l-0.27-4.037c6.832-0.454,13.733-0.302,20.407-0.153
						c3.29,0.073,6.691,0.148,10.026,0.149c22.528-0.964,45.4-0.387,67.517,0.167c24.268,0.612,49.36,1.243,73.999-0.164
						l0.231,4.039C325.865,316.029,314.725,316.254,303.622,316.254z"/>
				</g>
			</g>
		</g>
		<g>
			<g>
				<g>
					<path fill="#FFFFFF" d="M164.88,289.105c49.219-2.696,99.113,2.023,148.332,0c8.091,0,15.507,0,23.599,0"/>
				</g>
			</g>
			<g>
				<g>
					<path d="M285.612,291.646c-14.452,0-28.905-0.346-43.067-0.687c-25.491-0.61-51.851-1.242-77.555,0.165l-0.221-4.04
						c25.863-1.417,52.303-0.781,77.873-0.17c23.164,0.555,47.116,1.13,70.486,0.169l0.083-0.001h23.599v4.046h-23.559
						C304.094,291.505,294.854,291.646,285.612,291.646z"/>
				</g>
			</g>
		</g>
		<g>
			<g>
				<g>
					<path fill="#FFFFFF" d="M164.88,264.159c25.621-1.349,51.916-1.349,77.537,0c25.622,0.673,51.916,1.348,77.538,0
						c5.394,0,11.462,0,16.855,0"/>
				</g>
			</g>
			<g>
				<g>
					<path d="M287.167,266.963c-15.062,0-30.077-0.395-44.804-0.782c-25.707-1.351-51.723-1.352-77.376-0.002l-0.213-4.04
						c25.795-1.356,51.954-1.356,77.75,0c25.322,0.668,51.557,1.357,77.325,0l0.106-0.002h16.855v4.045h-16.804
						C309.099,266.754,298.121,266.963,287.167,266.963z"/>
				</g>
			</g>
		</g>
		<g>
			<g>
				<g>
					<path fill="#FFFFFF" d="M164.88,239.212c4.72,0,8.765,0,13.485,0c52.59-2.697,105.854,2.022,158.445,0"/>
				</g>
			</g>
			<g>
				<g>
					<path d="M307.325,241.752c-15.436,0-30.87-0.346-45.994-0.686c-27.23-0.611-55.387-1.243-82.863,0.166l-0.103,0.002H164.88
						v-4.045h13.433c27.608-1.413,55.822-0.78,83.109-0.167c24.744,0.556,50.33,1.129,75.311,0.168l0.155,4.043
						C327.091,241.61,317.207,241.752,307.325,241.752z"/>
				</g>
			</g>
		</g>
		<g>
			<g>
				<g>
					<path fill="#FFFFFF" d="M164.88,214.265c5.394,0,11.462,0,16.856,0c25.621-1.348,51.916-0.674,77.536,0
						c25.622,1.349,51.917,1.349,77.538,0"/>
				</g>
			</g>
			<g>
				<g>
					<path d="M298.041,217.304c-12.988,0-25.977-0.34-38.874-1.018c-25.32-0.666-51.558-1.357-77.324,0l-0.106,0.002H164.88v-4.046
						h16.803c25.907-1.36,52.207-0.669,77.644,0c25.706,1.354,51.723,1.352,77.378,0.003l0.212,4.04
						C324.019,216.963,311.029,217.304,298.041,217.304z"/>
				</g>
			</g>
		</g>
		<g>
			<g>
				<g>
					<path fill="#FFFFFF" d="M164.88,189.319c8.091-0.674,15.507,0,23.598,0c49.219-2.022,99.113,2.697,148.332,0"/>
				</g>
			</g>
			<g>
				<g>
					<path d="M302.105,192.194c-14.458,0-28.888-0.346-43.058-0.686c-23.165-0.556-47.118-1.129-70.486-0.168l-0.083,0
						c-2.751,0-5.444-0.077-8.047-0.152c-5.209-0.151-10.128-0.293-15.383,0.146l-0.335-4.032c5.48-0.456,10.744-0.305,15.834-0.158
						c2.562,0.075,5.211,0.151,7.89,0.152c23.487-0.963,47.493-0.389,70.708,0.168c25.491,0.611,51.849,1.243,77.554-0.167
						l0.222,4.041C325.389,191.971,313.738,192.194,302.105,192.194z"/>
				</g>
			</g>
		</g>
		<g>
			<g>
				<g>
					<path fill="#FFFFFF" d="M164.88,165.047c18.204-1.349,35.734-1.349,53.938-1.349c28.992,0.674,58.659,2.697,87.651,1.349
						c10.113,0,20.227,0.674,30.341,0"/>
				</g>
			</g>
			<g>
				<g>
					<path d="M285.484,167.521c-14.044,0-28.153-0.51-41.952-1.01c-8.139-0.295-16.556-0.6-24.761-0.791
						c-18.291,0.001-35.612,0.001-53.743,1.344l-0.299-4.035c18.279-1.354,35.673-1.354,54.088-1.354
						c8.278,0.192,16.708,0.497,24.86,0.793c20.653,0.747,42.006,1.52,62.697,0.559l0.094-0.003c3.394,0,6.832,0.077,10.157,0.15
						c6.586,0.147,13.396,0.298,20.048-0.146l0.271,4.037c-6.834,0.455-13.734,0.302-20.407,0.154
						c-3.287-0.074-6.688-0.149-10.021-0.15C299.554,167.392,292.527,167.521,285.484,167.521z"/>
				</g>
			</g>
		</g>
		<g>
			<g>
				<g>
					<path fill="#FFFFFF" d="M164.88,140.1c49.219-2.697,99.113,2.022,148.332,0c8.091,0,15.507,0,23.599,0"/>
				</g>
			</g>
			<g>
				<g>
					<path d="M285.612,142.64c-14.452,0-28.905-0.346-43.067-0.686c-25.491-0.61-51.851-1.243-77.555,0.166l-0.221-4.04
						c25.863-1.417,52.303-0.782,77.873-0.17c23.164,0.554,47.116,1.129,70.486,0.169l0.083-0.002h23.599v4.045h-23.559
						C304.094,142.498,294.854,142.64,285.612,142.64z"/>
				</g>
			</g>
		</g>
		<g>
			<g>
				<g>
					<path fill="#FFFFFF" d="M164.88,115.153c3.371,0,6.742,0,10.114-0.674c53.938-2.022,107.877,2.697,161.816,0.674"/>
				</g>
			</g>
			<g>
				<g>
					<path d="M307.099,117.689c-17.222,0-34.415-0.431-51.247-0.852c-26.435-0.661-53.768-1.346-80.623-0.343
						c-3.513,0.682-6.986,0.682-10.349,0.682v-4.045c3.364,0,6.542,0,9.717-0.635l0.321-0.038
						c27.033-1.015,54.485-0.328,81.035,0.336c26.486,0.663,53.874,1.348,80.781,0.338l0.151,4.042
						C326.993,117.545,317.038,117.689,307.099,117.689z"/>
				</g>
			</g>
		</g>
		<g>
			<g>
				<g>
					<path fill="#FFFFFF" d="M164.88,90.207c4.72,0,8.765,0,13.485,0c52.59-2.023,105.854,2.696,158.445,0"/>
				</g>
			</g>
			<g>
				<g>
					<path d="M299.735,93.083c-15.439,0-30.852-0.346-45.981-0.685c-24.745-0.556-50.333-1.129-75.311-0.17l-0.078,0.002H164.88
						v-4.046h13.446c25.087-0.962,50.726-0.387,75.517,0.169c27.23,0.611,55.387,1.242,82.862-0.166l0.208,4.04
						C324.598,92.859,312.158,93.083,299.735,93.083z"/>
				</g>
			</g>
		</g>
		<g>
			<g>
				<g>
					<path fill="#FFFFFF" d="M164.88,65.26c6.742,0,13.485,0,20.227,0c50.568-2.022,101.135,2.697,151.704,0"/>
				</g>
			</g>
			<g>
				<g>
					<path d="M301.251,68.136c-14.776,0-29.499-0.346-43.952-0.685c-23.646-0.556-48.095-1.13-72.11-0.169l-0.082,0.001H164.88
						v-4.045h20.187c24.13-0.963,48.631-0.388,72.327,0.169c26.007,0.61,52.896,1.241,79.308-0.166l0.216,4.04
						C325.071,67.912,313.144,68.136,301.251,68.136z"/>
				</g>
			</g>
		</g>
	</g>
	<g>
		<path fill="#FFFFFF" stroke="#000000" stroke-width="5" stroke-miterlimit="10" d="M110.104,433.827"/>
	</g>
	<g>
		<polygon fill="#FFFFFF" points="291.462,231.511 380.868,232.131 381.722,323.243 289.065,322.57 289.065,344.136 
			217.021,269.981 291.576,207.498 		"/>
		<path d="M291.089,349.121l-77.035-79.291l79.566-66.684l-0.125,26.357l89.378,0.62l0.891,95.159l-92.675-0.676V349.121z
			 M219.989,270.134l67.054,69.017v-18.619l92.637,0.674l-0.815-87.064l-89.436-0.622l0.104-21.67L219.989,270.134z"/>
	</g>
	<g>
		<polygon fill="#FFFFFF" points="204.123,275.262 114.717,274.642 113.864,183.529 206.519,184.204 206.519,162.637 
			278.563,236.792 204.009,299.275 		"/>
		<path d="M201.965,303.628l0.125-26.357l-89.378-0.62l-0.891-95.158l92.675,0.674v-24.514l77.035,79.291L201.965,303.628z
			 M116.721,272.633l89.435,0.621l-0.103,21.67l69.544-58.283l-67.055-69.019v18.619l-92.636-0.674L116.721,272.633z"/>
	</g>
</g>
</svg>
