<?xml version="1.0" encoding="utf-8"?>
<!-- Generator: Adobe Illustrator 16.2.1, SVG Export Plug-In . SVG Version: 6.00 Build 0)  -->
<!DOCTYPE svg PUBLIC "-//W3C//DTD SVG 1.1//EN" "http://www.w3.org/Graphics/SVG/1.1/DTD/svg11.dtd">
<svg version="1.1" id="Layer_1" xmlns="http://www.w3.org/2000/svg" xmlns:xlink="http://www.w3.org/1999/xlink" x="0px" y="0px"
	 width="500px" height="500px" viewBox="0 0 500 500" enable-background="new 0 0 500 500" xml:space="preserve">
<g>
	<circle cx="250" cy="250" r="214.5"/>
	<g>
		<g>
			<polygon fill="#FFFFFF" points="265.65,236.962 255.683,221.936 267.1,207.36 279.523,222.601 278.863,223.26 294.639,236.282 
				281.745,248.364 			"/>
		</g>
		<g>
			<g>
				<polygon fill="#FFFFFF" points="212.762,189.013 213.519,186.339 204.549,169.088 191.627,161.662 169.958,158.397 
					153.699,173.962 134.083,184.717 119.875,201.702 118.914,200.75 103.493,216.378 91.167,234.676 77.68,252.145 78.648,273.727 
					85.962,287.707 104.322,293.063 108.063,292.588 125.762,273.078 143.153,253.171 160.092,232.726 179.522,220.082 
					193.977,202.127 				"/>
			</g>
			<g>
				<polygon fill="#FFFFFF" points="236.289,209.279 231.691,206.497 211.617,204.125 190.376,223.302 168.277,242.014 
					152.711,259.719 137.428,277.603 123.09,295.738 123.371,314.829 128.601,318.292 143.218,295.736 161.039,275.72 
					180.021,256.855 197.855,239.959 216.414,223.858 				"/>
			</g>
			<g>
				<polygon fill="#FFFFFF" points="299.729,274.015 293.5,268.37 279.442,288.256 263.51,306.308 247.118,323.951 229.694,343.558 
					209.517,360.27 187.769,374.604 191.896,381.822 207.734,382.403 225.943,367.856 244.692,353.16 261.761,336.531 
					283.445,315.738 303.922,292.947 				"/>
			</g>
			<g>
				<polygon fill="#FFFFFF" points="344.978,314.156 340.078,298.208 319.854,294.225 314.148,293.066 301.309,311.767 
					284.197,326.452 270.705,344.514 251.308,361.481 231.598,377.995 212.508,395.246 213.98,401.787 219.355,418.904 
					232.422,426.59 252.93,426.086 271.218,414.713 289.358,402.229 306.07,387.976 305.818,387.557 319.565,370.353 
					333.263,353.247 343.284,334.28 				"/>
			</g>
		</g>
		<g>
			<polyline fill="#FFFFFF" points="395.952,87.972 380.78,106.134 363.246,122.306 347.729,140.226 332.957,158.801 
				316.585,175.944 300.089,185.126 281.955,191.936 280.765,201.016 286.317,216.436 301.68,223.913 311.547,221.574 
				319.47,203.368 327.953,187.317 345.588,168.824 365.593,152.893 384.45,135.66 403.027,118.104 422.264,101.322 			"/>
		</g>
	</g>
</g>
</svg>
