<?xml version="1.0" encoding="utf-8"?>
<!-- Generator: Adobe Illustrator 16.2.1, SVG Export Plug-In . SVG Version: 6.00 Build 0)  -->
<!DOCTYPE svg PUBLIC "-//W3C//DTD SVG 1.1//EN" "http://www.w3.org/Graphics/SVG/1.1/DTD/svg11.dtd">
<svg version="1.1" id="Layer_1" xmlns="http://www.w3.org/2000/svg" xmlns:xlink="http://www.w3.org/1999/xlink" x="0px" y="0px"
	 width="500px" height="500px" viewBox="0 0 500 500" enable-background="new 0 0 500 500" xml:space="preserve">
<g>
	<g>
		<circle cx="250.966" cy="250.15" r="216.414"/>
	</g>
	<g>
		<circle fill="#FFFFFF" cx="249.183" cy="241.895" r="78.106"/>
	</g>
	<g>
		<g>
			<g>
				<path fill="#FFFFFF" d="M31.612,170.513c0,0,81.66,144.64,181.728,181.064c97.247,35.394,262.436-19.4,262.436-19.4l-5.742-2.09
					c0,0-86.282-146.323-183.53-181.719c-100.066-36.421-262.437,19.399-262.437,19.399L31.612,170.513z"/>
			</g>
			<g>
				<path d="M293.333,366.869c-0.006,0-0.011,0-0.017,0c-31.762-0.002-59.06-4.076-81.134-12.111
					c-23.21-8.447-47.32-23.343-71.66-44.27c-19.377-16.663-38.96-37.176-58.204-60.974c-29.552-36.544-49.32-69.862-53.024-76.243
					l-15.376-5.596l9.046-3.11c0.929-0.319,93.864-31.92,181.727-31.92c32.19,0,60.105,4.219,82.969,12.541
					c22.566,8.214,46.372,22.997,70.752,43.938c19.403,16.667,39.233,37.267,58.938,61.225c30.35,36.9,51.155,70.657,54.969,76.966
					l13.76,5.01l-9.237,3.065C475.892,335.703,380.944,366.869,293.333,366.869z M34.134,168.095l0.425,0.753
					c0.203,0.36,20.704,36.459,53.093,76.496c29.753,36.78,75.913,84.514,126.845,103.052c21.332,7.764,47.85,11.701,78.819,11.701
					c72.009,0.004,149.181-21.358,173.561-28.696c-2.464-4.109-23.509-38.774-54.82-76.831
					c-30.487-37.055-77.22-85.008-126.712-103.02c-22.12-8.053-49.254-12.134-80.653-12.134
					C133.74,139.417,59.367,160.313,34.134,168.095z"/>
			</g>
		</g>
		<g>
			<g>
				<path fill="#FFFFFF" d="M71.968,100.614c0,0,27.266,163.849,108.841,232.299c79.277,66.521,253.245,71.527,253.245,71.527
					l-4.681-3.929c0,0-31.035-167.009-110.312-233.529c-81.573-68.451-253.244-71.53-253.244-71.53L71.968,100.614z"/>
			</g>
			<g>
				<path d="M443.685,408.103l-9.728-0.278c-0.438-0.015-44.358-1.371-97.394-10.872c-31.19-5.587-59.41-12.859-83.88-21.612
					c-30.746-11.001-55.66-24.401-74.05-39.835c-18.921-15.875-36.482-38.119-52.196-66.11
					c-12.511-22.284-23.896-48.257-33.841-77.201c-15.271-44.448-22.451-82.518-23.749-89.78L56.312,91.897l9.565,0.171
					c0.432,0.007,43.792,0.882,96.556,10.146c31.029,5.449,59.22,12.691,83.789,21.529c30.862,11.1,56.102,24.774,75.016,40.646
					c18.396,15.436,35.709,37.469,51.455,65.485c12.533,22.299,24.122,48.437,34.445,77.691
					c15.898,45.054,23.903,83.892,25.329,91.123L443.685,408.103z M75.165,99.199l0.143,0.859c0.067,0.407,6.986,41.34,23.729,90.04
					c15.38,44.738,42.429,105.379,83.949,140.221c40.38,33.883,106.455,51.315,154.773,59.971
					c39.113,7.007,73.167,9.541,88.199,10.385c-0.903-4.68-8.823-44.465-25.236-90.951c-15.978-45.25-43.489-106.295-83.836-140.148
					c-41.542-34.858-107.501-52.236-155.52-60.675C123.559,102.256,90.644,99.963,75.165,99.199z"/>
			</g>
		</g>
		<g>
			<g>
				<path fill="#FFFFFF" d="M133.797,48.733c0,0-30.417,163.292,22.827,255.515c51.745,89.624,213.507,153.828,213.507,153.828
					l-3.055-5.292c0,0,27.958-167.551-23.787-257.175c-53.243-92.223-213.507-153.83-213.507-153.83L133.797,48.733z"/>
			</g>
			<g>
				<path d="M377.93,464.812l-9.047-3.589c-0.406-0.162-41.212-16.458-87.801-43.524c-27.397-15.921-51.43-32.406-71.429-49
					c-25.128-20.854-43.956-41.97-55.959-62.759c-12.35-21.391-21.245-48.299-26.438-79.977c-4.134-25.218-5.95-53.52-5.395-84.118
					c0.852-46.991,7.125-85.22,8.389-92.49l-8.181-14.168l8.929,3.432c0.403,0.155,40.849,15.807,87.263,42.559
					c27.293,15.732,51.308,32.18,71.373,48.888c25.203,20.987,44.244,42.468,56.588,63.851
					c12.008,20.798,20.74,47.424,25.955,79.138c4.151,25.241,6.101,53.767,5.796,84.785c-0.469,47.772-6.229,87.003-7.364,94.294
					L377.93,464.812z M137.286,48.496l-0.16,0.855c-0.076,0.407-7.575,41.237-8.499,92.727
					c-0.849,47.3,3.829,113.535,30.929,160.478c26.356,45.649,82.484,84.628,124.927,109.287
					c34.359,19.964,65.492,33.992,79.329,39.925c0.751-4.706,6.915-44.799,7.392-94.098c0.463-47.984-4.51-114.757-30.845-160.37
					c-27.115-46.964-83.153-85.853-125.391-110.207C181.716,67.921,151.57,54.508,137.286,48.496z"/>
			</g>
		</g>
		<g>
			<g>
				<path fill="#FFFFFF" d="M209.643,21.127c0,0-84.432,143.041-65.941,247.912c17.972,101.917,148.021,217.577,148.021,217.577
					l-1.063-6.019c0,0,83.579-147.884,65.609-249.801c-18.492-104.872-148.02-217.577-148.02-217.577L209.643,21.127z"/>
			</g>
			<g>
				<path d="M296.745,495.613l-7.273-6.467c-0.327-0.293-33.099-29.562-67.62-70.931c-20.301-24.331-37.246-48.042-50.362-70.476
					c-16.481-28.19-26.952-54.47-31.121-78.113c-4.29-24.325-3.445-52.652,2.51-84.195c4.74-25.112,12.713-52.328,23.7-80.891
					c16.873-43.865,35.843-77.645,39.517-84.042l-2.841-16.113l7.216,6.278c0.326,0.284,32.98,28.825,67.444,69.839
					c20.268,24.118,37.208,47.787,50.35,70.35c16.505,28.341,27.049,55.041,31.337,79.355c4.17,23.649,3.27,51.656-2.678,83.242
					c-4.731,25.138-12.656,52.61-23.551,81.655c-16.78,44.728-35.612,79.625-39.172,86.085L296.745,495.613z M213.001,22.097
					l-0.443,0.751c-0.209,0.356-21.222,36.158-39.7,84.226c-16.975,44.157-35.234,107.999-25.823,161.377
					c9.15,51.889,48.528,107.683,79.952,145.352c25.468,30.529,49.966,54.401,60.953,64.724c2.317-4.171,21.822-39.736,39.13-85.896
					c16.848-44.932,35.01-109.378,25.863-161.246c-9.422-53.434-48.813-109.174-80.2-146.526
					C248.055,55.492,224.354,32.619,213.001,22.097z"/>
			</g>
		</g>
		<g>
			<g>
				<path fill="#FFFFFF" d="M290.355,21.127c0,0-128.262,105.536-146.754,210.406c-17.97,101.919,64.677,255.083,64.677,255.083
					l1.062-6.019c0,0,129.118-110.38,147.087-212.297c18.492-104.872-64.676-255.082-64.676-255.082L290.355,21.127z"/>
			</g>
			<g>
				<path d="M209.921,496.789l-4.623-8.565c-0.207-0.384-20.992-39.099-39.281-89.781c-10.756-29.805-18.569-57.881-23.221-83.449
					c-5.847-32.125-6.697-60.403-2.528-84.046c4.29-24.325,14.771-50.655,31.155-78.259c13.042-21.975,29.844-44.823,49.938-67.906
					c30.857-35.45,60.237-60.703,65.877-65.458l2.841-16.112l4.634,8.369c0.209,0.377,21.132,38.365,39.492,88.692
					c10.795,29.597,18.618,57.631,23.249,83.329c5.819,32.278,6.595,60.971,2.307,85.287c-4.169,23.65-14.595,49.659-30.985,77.307
					c-13.044,22.004-29.888,45.107-50.059,68.676c-31.066,36.292-60.698,62.644-66.252,67.497L209.921,496.789z M293.181,23.187
					l-0.674,0.554c-0.319,0.263-32.309,26.72-66.114,65.569c-31.053,35.688-70.046,89.435-79.459,142.813
					c-9.148,51.888,8.773,117.787,25.418,163.932c13.489,37.396,28.345,68.209,35.14,81.665c3.604-3.124,34.097-29.874,66.148-67.33
					c31.198-36.461,70.309-90.809,79.453-142.678c9.424-53.433-8.529-119.285-25.25-165.119
					C314.698,66.558,300.252,36.958,293.181,23.187z"/>
			</g>
		</g>
		<g>
			<g>
				<path fill="#FFFFFF" d="M366.201,48.733c0,0-156.623,55.303-209.867,147.525c-51.745,89.625-26.467,261.818-26.467,261.818
					l3.056-5.292c0,0,159.083-59.562,210.827-149.187c53.245-92.223,26.467-261.819,26.467-261.819L366.201,48.733z"/>
			</g>
			<g>
				<path d="M127.931,468.198l-1.414-9.631c-0.063-0.431-6.354-43.921-6.207-97.8c0.088-31.686,2.349-60.741,6.721-86.361
					c5.494-32.187,14.366-59.05,26.37-79.841c12.35-21.391,31.206-42.547,56.042-62.882c19.772-16.19,43.376-31.914,70.152-46.733
					c41.121-22.757,77.365-36.439,84.292-38.979l8.181-14.169l1.491,9.449c0.068,0.427,6.735,43.28,6.775,96.851
					c0.022,31.504-2.216,60.524-6.651,86.255c-5.572,32.321-14.656,59.551-27.003,80.933
					c-12.007,20.799-30.699,41.675-55.557,62.046c-19.783,16.214-43.512,32.167-70.528,47.413
					c-41.606,23.478-78.463,38.104-85.343,40.767L127.931,468.198z M368.15,51.633l-0.822,0.291
					c-0.389,0.139-39.497,14.059-84.551,39.003c-41.388,22.916-96.412,60.084-123.512,107.023
					c-26.356,45.65-32.049,113.748-32.184,162.837c-0.108,39.732,3.309,73.711,5.089,88.663
					c4.451-1.705,42.256-16.412,85.187-40.648c41.788-23.589,97.127-61.285,123.461-106.897
					c27.13-46.988,32.782-115.01,32.746-163.798C373.537,99.749,370.086,66.992,368.15,51.633z"/>
			</g>
		</g>
		<g>
			<g>
				<path fill="#FFFFFF" d="M428.03,100.613c0,0-166.092-1.6-247.667,66.85C101.086,233.984,65.946,404.44,65.946,404.44
					l4.682-3.929c0,0,169.86-1.561,249.138-68.082c81.575-68.451,114.417-236.978,114.417-236.978L428.03,100.613z"/>
			</g>
			<g>
				<path d="M60.665,413.291l1.965-9.533c0.088-0.43,9.051-43.446,27.618-94.026c10.918-29.746,22.981-56.275,35.853-78.853
					c16.171-28.369,33.696-50.576,52.087-66.009c33.077-27.754,83.224-47.5,149.05-58.693c49.588-8.431,91.074-8.941,99.564-8.951
					l12.531-10.515l-1.83,9.389c-0.081,0.424-8.473,42.973-26.757,93.328c-10.755,29.611-22.783,56.115-35.752,78.779
					c-16.29,28.465-34.141,50.945-53.055,66.815c-18.396,15.437-43.101,28.659-73.427,39.304
					c-24.137,8.469-51.891,15.344-82.491,20.429c-47.127,7.834-86.764,8.974-94.139,9.121L60.665,413.291z M427.061,103.995
					c-7.783,0-49.115,0.428-98.687,8.855c-28.604,4.863-54.63,11.511-77.354,19.759c-27.896,10.125-50.936,22.724-68.48,37.446
					c-40.381,33.884-69.021,95.927-85.936,142.007c-13.692,37.301-22.101,70.397-25.542,85.058
					c4.766-0.077,45.321-0.968,93.952-9.06c47.336-7.875,112.229-24.369,152.576-58.223c41.564-34.877,70.141-96.864,86.795-142.721
					c13.093-36.054,21.052-68.016,24.486-83.11l-0.871-0.009C427.989,103.998,427.668,103.995,427.061,103.995z"/>
			</g>
		</g>
		<g>
			<g>
				<path fill="#FFFFFF" d="M468.389,170.513c0,0-155.53-58.311-255.596-21.89c-97.249,35.395-188.57,183.553-188.57,183.553
					l5.744-2.09c0,0,160.15,56.629,257.398,21.234c100.067-36.424,188.568-183.555,188.568-183.555L468.389,170.513z"/>
			</g>
			<g>
				<path d="M210.212,366.343c-81.608,0-169.165-28.902-180.214-32.666l-13.764,5.01l5.108-8.287
					c0.23-0.372,23.365-37.73,58.111-78.91c20.435-24.217,40.843-45.021,60.659-61.834c24.899-21.126,48.963-36.001,71.523-44.212
					c22.194-8.078,48.833-12.174,79.179-12.174c81.475,0,166.574,29.677,177.576,33.641l15.375-5.595l-4.931,8.197
					c-0.224,0.37-22.659,37.484-57.065,78.547c-20.232,24.148-40.602,44.941-60.539,61.801
					c-25.044,21.178-49.506,36.197-72.708,44.642C266.933,362.358,240.585,366.343,210.212,366.343z M31.534,327.048
					c7.04,2.428,96.05,32.525,178.678,32.525c29.582,0,55.149-3.847,75.996-11.434c50.986-18.558,99.038-67.032,130.373-104.429
					c24.635-29.402,43.046-56.714,51.435-69.722l-0.815-0.305c-0.896-0.337-90.774-33.645-176.386-33.645
					c-29.554,0-55.414,3.958-76.864,11.766c-49.511,18.02-97.62,66.49-129.261,103.978
					C59.047,286.163,39.793,314.435,31.534,327.048z"/>
			</g>
		</g>
		<g>
			<g>
				<path fill="#FFFFFF" d="M482.405,250c0,0-126.208-107.988-232.696-107.988C146.22,142.012,9.734,250,9.734,250h6.111
					c0,0,131.125,107.989,234.614,107.989C356.948,357.989,490.434,250,490.434,250H482.405z"/>
			</g>
			<g>
				<path d="M250.459,361.373c-24.016,0-51.441-5.75-81.513-17.088c-23.934-9.026-49.613-21.602-76.324-37.377
					c-41.136-24.291-72.233-48.896-77.976-53.522H0l7.634-6.04c0.343-0.272,34.859-27.464,81.595-54.275
					c27.484-15.769,53.778-28.338,78.15-37.36c30.623-11.336,58.322-17.084,82.33-17.084c24.701,0,52.45,5.751,82.479,17.091
					c23.908,9.03,49.326,21.608,75.547,37.389c40.269,24.232,70.24,48.78,75.903,53.51H500l-7.438,6.015
					c-0.335,0.272-34.113,27.475-80.488,54.295c-27.271,15.771-53.521,28.342-78.023,37.366
					C303.272,355.627,275.149,361.373,250.459,361.373z M18.357,247.68c3.698,3.002,35.338,28.39,77.795,53.453
					c41.323,24.393,101.639,53.473,154.307,53.473c54.257,0,115.991-29.116,158.226-53.54
					c33.206-19.205,59.846-38.572,72.181-47.926l-0.662-0.567c-0.315-0.269-31.925-27.178-76.054-53.724
					c-40.539-24.385-100.24-53.452-154.441-53.452c-52.713,0-114.534,29.117-157.111,53.544
					C58.132,218.714,30.417,238.663,18.357,247.68z"/>
			</g>
		</g>
	</g>
	<g>
		<g>
			<defs>
				<rect id="SVGID_1_" x="144.768" y="146.166" width="210.747" height="210.746"/>
			</defs>
			<clipPath id="SVGID_2_">
				<use xlink:href="#SVGID_1_"  overflow="visible"/>
			</clipPath>
			<g clip-path="url(#SVGID_2_)">
				<defs>
					<rect id="SVGID_3_" x="144.768" y="146.166" width="210.747" height="210.746"/>
				</defs>
				<clipPath id="SVGID_4_">
					<use xlink:href="#SVGID_3_"  overflow="visible"/>
				</clipPath>
				<path clip-path="url(#SVGID_4_)" d="M250.142,159.081c-50.978,0-92.471,41.47-92.471,92.453
					c0,50.995,41.482,92.465,92.471,92.465c50.994,0,92.47-41.47,92.47-92.465C342.611,200.551,301.136,159.081,250.142,159.081
					 M250.142,330.427c-43.485,0-78.842-35.376-78.842-78.894c0-43.488,35.356-78.847,78.842-78.847
					c43.491,0,78.872,35.359,78.872,78.847C329.014,295.016,293.633,330.427,250.142,330.427"/>
				<path clip-path="url(#SVGID_4_)" d="M307.145,245.233h-41.768l29.502-29.504c1.188-1.195,1.881-2.773,1.881-4.448
					c0.012-1.698-0.663-3.293-1.855-4.454c-2.39-2.39-6.552-2.39-8.898,0l-29.564,29.528v-41.796c0-3.476-2.815-6.3-6.297-6.3
					c-3.49,0-6.3,2.824-6.3,6.3v41.796l-29.556-29.562c-2.413-2.355-6.529-2.355-8.881,0.034c-2.441,2.441-2.441,6.437,0,8.878
					l29.528,29.527h-41.782c-3.464,0-6.297,2.83-6.297,6.317c0,3.481,2.833,6.306,6.297,6.306h41.782l-29.556,29.557
					c-2.413,2.464-2.413,6.437,0.14,9.032c2.41,2.207,6.297,2.281,8.798-0.114l29.528-29.551v41.756
					c0,3.447,2.827,6.255,6.312,6.255c1.709,0,3.319-0.669,4.513-1.87c1.158-1.2,1.815-2.772,1.804-4.413V266.78l29.662,29.677
					c2.436,2.195,6.123,2.326,8.798-0.16c2.43-2.47,2.413-6.449-0.028-8.901l-29.559-29.551h41.799c3.447,0,6.245-2.829,6.245-6.312
					C313.39,248.046,310.598,245.233,307.145,245.233"/>
			</g>
		</g>
	</g>
</g>
</svg>
